#!OML:ASF X:\für Bonn\!DataBase\2005_08_10_Bjorn_Final\c3d\bjorn.ASF
:FULLY-SPECIFIED
:DEGREES
620
root 0.0819371 1.66773 11.8146 -2069.91 -9.22786 188.029
lowerback -2.14978 0.252793 -7.29475
upperback 2.47563 0.493916 -5.3366
thorax 3.75805 -0.0101316 -1.43305
lowerneck -17.7304 -6.58027 -1.00299
upperneck 10.5615 -10.0455 6.79114
head 6.51614 -4.53385 1.22541
rclavicle 1.43125e-014 -6.2816e-014
rhumerus -53.882 36.5534 -100.969
rradius 107.863
rwrist -24.9696
rhand -5.54866 11.7931
rfingers 7.12502
rthumb 20.2662 -17.1696
lclavicle 1.43125e-014 -6.2816e-014
lhumerus -49.6501 -50.5345 97.4854
lradius 105.597
lwrist 33.4864
lhand 5.4382 -13.9156
lfingers 7.12502
lthumb 30.7878 733.526
rfemur -365.3 -16.2284 366.7
rtibia 22.221
rfoot 13.1333 -4.50299
rtoes 7.59648
lfemur -30.718 -13.9725 -19.6709
ltibia 65.5237
lfoot 27.4977 7.15666
ltoes -12.5758
621
root 0.0813739 1.66899 11.8118 -2069.87 -9.18309 188.154
lowerback -2.21801 0.205939 -7.29882
upperback 2.46734 0.443001 -5.31747
thorax 3.78965 -0.0341995 -1.4136
lowerneck -17.7328 -6.56179 -0.957898
upperneck 10.6421 -10.0335 6.76578
head 6.53849 -4.5258 1.21044
rclavicle 2.38542e-014 1.49089e-014
rhumerus -53.866 36.5414 -100.901
rradius 107.78
rwrist -24.9824
rhand -5.39666 11.789
rfingers 7.12502
rthumb 20.4123 -17.1581
lclavicle 2.38542e-014 1.49089e-014
lhumerus -49.5207 -50.5791 97.2965
lradius 105.686
lwrist 33.5922
lhand 5.35566 -13.8037
lfingers 7.12502
lthumb 30.7091 733.653
rfemur -365.312 -16.3206 366.724
rtibia 22.2477
rfoot 12.8875 -4.96882
rtoes 7.87681
lfemur -30.834 -14.2794 -19.6909
ltibia 65.5594
lfoot 27.4443 6.78751
ltoes -12.9383
622
root 0.0803057 1.66976 11.809 -2069.84 -9.16748 188.287
lowerback -2.26859 0.167017 -7.33195
upperback 2.46034 0.400631 -5.30284
thorax 3.81227 -0.0552008 -1.38242
lowerneck -17.7671 -6.55605 -0.912714
upperneck 10.7354 -10.0365 6.72318
head 6.5697 -4.52504 1.18714
rclavicle 4.77083e-015 4.01545e-014
rhumerus -53.8688 36.5067 -100.823
rradius 107.733
rwrist -25.0497
rhand -5.18134 11.738
rfingers 7.12502
rthumb 20.6192 -17.1868
lclavicle 4.77083e-015 4.01545e-014
lhumerus -49.4155 -50.6471 97.1727
lradius 105.785
lwrist 33.6784
lhand 5.28358 -13.6081
lfingers 7.12502
lthumb 30.6404 733.861
rfemur -365.326 -16.4741 366.709
rtibia 22.2903
rfoot 12.682 -5.32557
rtoes 7.97161
lfemur -30.939 -14.5643 -19.7519
ltibia 65.5754
lfoot 27.3771 6.33958
ltoes -13.4675
623
root 0.0792442 1.67064 11.8069 -2069.82 -9.12298 188.411
lowerback -2.30684 0.128365 -7.32507
upperback 2.44901 0.355626 -5.29477
thorax 3.82362 -0.0759027 -1.3802
lowerneck -17.7683 -6.53849 -0.824932
upperneck 10.8068 -10.0284 6.65728
head 6.58455 -4.52071 1.15261
rclavicle 1.43125e-014 -5.1684e-015
rhumerus -53.8765 36.4827 -100.8
rradius 107.676
rwrist -25.1491
rhand -5.07184 11.7302
rfingers 7.12502
rthumb 20.7244 -17.1832
lclavicle 1.43125e-014 -5.1684e-015
lhumerus -49.357 -50.7297 97.0563
lradius 105.904
lwrist 33.7828
lhand 5.17847 -13.428
lfingers 7.12502
lthumb 30.5402 734.06
rfemur -365.331 -16.6052 366.726
rtibia 22.3327
rfoot 12.5059 -5.65543
rtoes 8.18882
lfemur -31.0283 -14.8166 -19.7807
ltibia 65.5787
lfoot 27.2762 5.92496
ltoes -13.8512
624
root 0.0783487 1.67184 11.8045 -2069.83 -9.1087 188.535
lowerback -2.3256 0.0956041 -7.36158
upperback 2.4501 0.317985 -5.2799
thorax 3.83657 -0.0948755 -1.3467
lowerneck -17.7992 -6.53265 -0.774246
upperneck 10.9005 -10.0317 6.60942
head 6.6148 -4.52041 1.12684
rclavicle 7.15625e-014 -3.81667e-014
rhumerus -53.8929 36.4656 -100.778
rradius 107.605
rwrist -25.2285
rhand -4.96078 11.7119
rfingers 7.12502
rthumb 20.8311 -17.1898
lclavicle 7.15625e-014 -3.81667e-014
lhumerus -49.2779 -50.8122 96.9614
lradius 106.037
lwrist 33.917
lhand 5.13361 -13.2091
lfingers 7.12502
lthumb 30.4974 734.287
rfemur -365.298 -16.7814 366.699
rtibia 22.3613
rfoot 12.3606 -5.94662
rtoes 8.3937
lfemur -31.0744 -15.0496 -19.8553
ltibia 65.5585
lfoot 27.1016 5.48275
ltoes -14.25
625
root 0.0769017 1.67246 11.8038 -2069.83 -9.09305 188.661
lowerback -2.33621 0.057685 -7.3909
upperback 2.44593 0.272093 -5.26976
thorax 3.83974 -0.117293 -1.32244
lowerneck -17.8377 -6.51453 -0.686291
upperneck 11.01 -10.0204 6.51989
head 6.64663 -4.51375 1.08347
rclavicle 1.27222e-014 -2.95195e-014
rhumerus -53.9282 36.4649 -100.789
rradius 107.549
rwrist -25.323
rhand -4.88906 11.6961
rfingers 7.12502
rthumb 20.9 -17.198
lclavicle 1.27222e-014 -2.95195e-014
lhumerus -49.2283 -50.8875 96.8773
lradius 106.168
lwrist 34.0085
lhand 5.12182 -13.0862
lfingers 7.12502
lthumb 30.4862 734.412
rfemur -365.26 -16.9306 366.681
rtibia 22.3673
rfoot 12.2584 -6.19075
rtoes 8.51752
lfemur -31.1129 -15.2664 -19.9202
ltibia 65.5104
lfoot 26.9008 5.12245
ltoes -14.095
626
root 0.0758356 1.67344 11.8033 -2069.83 -9.12251 188.769
lowerback -2.36831 0.0220183 -7.47097
upperback 2.46011 0.233982 -5.26214
thorax 3.87421 -0.138912 -1.27296
lowerneck -17.8983 -6.4972 -0.625485
upperneck 11.0876 -10.0056 6.45593
head 6.67453 -4.50472 1.05261
rclavicle -1.74931e-014 9.73051e-014
rhumerus -53.9103 36.5056 -100.756
rradius 107.483
rwrist -25.4594
rhand -4.81529 11.7097
rfingers 7.12502
rthumb 20.9709 -17.1766
lclavicle -1.74931e-014 9.73051e-014
lhumerus -49.1696 -50.9609 96.8293
lradius 106.292
lwrist 34.0971
lhand 5.07843 -13.063
lfingers 7.12502
lthumb 30.4448 734.443
rfemur -365.223 -17.0733 366.614
rtibia 22.3643
rfoot 12.1787 -6.39469
rtoes 8.73818
lfemur -31.1339 -15.4711 -20.0314
ltibia 65.4322
lfoot 26.6117 4.91799
ltoes -13.763
627
root 0.0746173 1.67536 11.8044 -2069.82 -9.15008 188.877
lowerback -2.40192 -0.0137061 -7.5574
upperback 2.45588 0.19498 -5.25378
thorax 3.8904 -0.160302 -1.21897
lowerneck -17.918 -6.47672 -0.539918
upperneck 11.1623 -9.98609 6.36123
head 6.69157 -4.49587 1.01013
rclavicle 1.43125e-014 -6.95746e-015
rhumerus -53.955 36.5309 -100.779
rradius 107.43
rwrist -25.6071
rhand -4.70714 11.7234
rfingers 7.12502
rthumb 21.0748 -17.1513
lclavicle 1.43125e-014 -6.95746e-015
lhumerus -49.1339 -51.0519 96.7959
lradius 106.406
lwrist 34.2096
lhand 5.08292 -13.0886
lfingers 7.12502
lthumb 30.4491 734.416
rfemur -365.204 -17.2309 366.551
rtibia 22.3559
rfoot 12.1606 -6.54346
rtoes 8.78517
lfemur -31.1435 -15.6627 -20.1355
ltibia 65.3121
lfoot 26.3297 4.71689
ltoes -13.5721
628
root 0.0729321 1.67616 11.804 -2069.82 -9.16396 188.994
lowerback -2.40944 -0.0509077 -7.62322
upperback 2.4471 0.150572 -5.23613
thorax 3.88725 -0.182897 -1.16665
lowerneck -17.9181 -6.45365 -0.47795
upperneck 11.2178 -9.95459 6.26874
head 6.69997 -4.48252 0.974369
rclavicle -3.18055e-015 -9.0447e-015
rhumerus -54.0275 36.5693 -100.803
rradius 107.376
rwrist -25.7262
rhand -4.63651 11.7577
rfingers 7.12502
rthumb 21.1426 -17.1095
lclavicle -3.18055e-015 -9.0447e-015
lhumerus -49.1724 -51.1314 96.8511
lradius 106.558
lwrist 34.2841
lhand 5.10963 -13.0782
lfingers 7.12502
lthumb 30.4745 734.422
rfemur -365.172 -17.3895 366.498
rtibia 22.3434
rfoot 12.1553 -6.6541
rtoes 8.98309
lfemur -31.141 -15.8468 -20.2274
ltibia 65.1697
lfoot 26.0216 4.57243
ltoes -13.5525
629
root 0.071279 1.67723 11.8046 -2069.82 -9.19377 189.094
lowerback -2.43684 -0.0812126 -7.69324
upperback 2.45505 0.117598 -5.24294
thorax 3.91271 -0.201688 -1.13751
lowerneck -17.9591 -6.42565 -0.348611
upperneck 11.2844 -9.9354 6.16648
head 6.71556 -4.47293 0.922122
rclavicle -1.90833e-014 7.45443e-015
rhumerus -54.0507 36.5965 -100.837
rradius 107.336
rwrist -25.9028
rhand -4.49071 11.7799
rfingers 7.12502
rthumb 21.2827 -17.0716
lclavicle -1.90833e-014 7.45443e-015
lhumerus -49.1836 -51.248 96.8548
lradius 106.705
lwrist 34.3391
lhand 5.15673 -13.152
lfingers 7.12502
lthumb 30.5195 734.34
rfemur -365.146 -17.5203 366.435
rtibia 22.341
rfoot 12.1627 -6.74327
rtoes 9.08136
lfemur -31.1131 -15.9851 -20.3428
ltibia 64.9877
lfoot 25.7306 4.42483
ltoes -13.7594
630
root 0.0693178 1.67833 11.8039 -2069.83 -9.20784 189.193
lowerback -2.44999 -0.117311 -7.7681
upperback 2.45994 0.0768762 -5.21527
thorax 3.92722 -0.223438 -1.06992
lowerneck -17.9811 -6.39814 -0.287058
upperneck 11.3308 -9.89535 6.06765
head 6.72414 -4.45538 0.884936
rclavicle 2.70347e-014 -5.92378e-014
rhumerus -54.1105 36.6552 -100.851
rradius 107.303
rwrist -26.0784
rhand -4.31541 11.773
rfingers 7.12502
rthumb 21.4511 -17.0594
lclavicle 2.70347e-014 -5.92378e-014
lhumerus -49.2438 -51.3323 96.944
lradius 106.872
lwrist 34.3863
lhand 5.22864 -13.1481
lfingers 7.12502
lthumb 30.588 734.331
rfemur -365.119 -17.7161 366.377
rtibia 22.3484
rfoot 12.2246 -6.73877
rtoes 9.34438
lfemur -31.0629 -16.1207 -20.4405
ltibia 64.7703
lfoot 25.4256 4.27209
ltoes -13.8113
631
root 0.0677052 1.67875 11.8034 -2069.83 -9.20805 189.301
lowerback -2.46131 -0.151981 -7.82251
upperback 2.46393 0.037031 -5.19097
thorax 3.93977 -0.244072 -1.01706
lowerneck -18.0024 -6.38176 -0.2176
upperneck 11.3675 -9.87152 5.9642
head 6.72936 -4.44647 0.843328
rclavicle -4.77083e-014 5.02925e-014
rhumerus -54.1649 36.7128 -100.877
rradius 107.273
rwrist -26.2487
rhand -4.1426 11.7729
rfingers 7.12502
rthumb 21.617 -17.0404
lclavicle -4.77083e-014 5.02925e-014
lhumerus -49.3047 -51.4577 97.04
lradius 107.047
lwrist 34.478
lhand 5.38389 -13.1568
lfingers 7.12502
lthumb 30.7361 734.295
rfemur -365.104 -17.8556 366.35
rtibia 22.3727
rfoot 12.2434 -6.70549
rtoes 9.31929
lfemur -31.0078 -16.2697 -20.5147
ltibia 64.5058
lfoot 25.137 4.23967
ltoes -13.5957
